<svg id="Group_345" data-name="Group 345" xmlns="http://www.w3.org/2000/svg" viewBox="0 0 262 85.18"><defs><style>.cls-1{stroke:#1d1d1b;stroke-linejoin:round;stroke-width:2.34px;}</style></defs><path id="Path_250" data-name="Path 250" d="M98,41.83h0L73.84,0H24.61L0,42.59,24.61,85.18H73.84L98,43.35h0l.44-.76ZM24,78,4.39,44.1H24Zm0-36.93H4.4L24,7.19ZM70.32,3,60.51,20,31.17,3ZM27,4.15,59,22.59,48.26,41.06H27ZM51.78,41.06l9.84-17L91,41.06ZM91,44.1l-29.41,17-9.85-17Zm-64,0H48.26L59,62.59,27,81Zm33.5,21.12,9.81,16.92H31.17ZM73,80.62,63.14,63.7l29.4-17ZM63.14,21.48,73,4.55,92.54,38.44Z"/><path id="Path_251" data-name="Path 251" class="cls-1" d="M30.65,1.75"/><path id="Path_252" data-name="Path 252" class="cls-1" d="M77.79,83.52"/><g id="Group_257" data-name="Group 257"><path id="Path_253" data-name="Path 253" d="M126.1,21.13,119.69,3.84V21.13h-2.64V.12h3.84l6.37,17.27L133.67.12h3.72v21h-2.6V3.84l-6.44,17.29Z"/><path id="Path_254" data-name="Path 254" d="M148,21.46c-4.19,0-7.11-3.22-7.11-8s2.92-7.95,7.11-7.95,7.11,3.22,7.11,8S152.16,21.46,148,21.46Zm0-2.26c2.69,0,4.44-2.22,4.44-5.7S150.67,7.76,148,7.76s-4.45,2.23-4.45,5.74S145.28,19.2,148,19.2Z"/><path id="Path_255" data-name="Path 255" d="M161.05,18.91v2.22h-2.64V.12h2.64V8.05a5.4,5.4,0,0,1,4.74-2.51c4.24,0,6.67,3.6,6.67,8s-2.43,8-6.67,8A5.37,5.37,0,0,1,161.05,18.91ZM161,14.05c0,3.51,2.17,5.09,4.33,5.09,2.87,0,4.48-2.37,4.48-5.64s-1.61-5.65-4.48-5.65C163.16,7.85,161,9.4,161,13Z"/><path id="Path_256" data-name="Path 256" d="M175.68.12h2.86V3.17h-2.86Zm2.75,21H175.8V5.83h2.63Z"/><path id="Path_257" data-name="Path 257" d="M185.45,21.13h-2.64V.12h2.64Z"/><path id="Path_258" data-name="Path 258" d="M189.72.12h2.86V3.17h-2.86Zm2.75,21h-2.64V5.83h2.64Z"/><path id="Path_259" data-name="Path 259" d="M197.26,8.08h-2.37V5.83h2.37V1.35h2.6V5.83h3.48V8.08h-3.48v9c0,1.62.79,1.9,2.14,1.9a6.28,6.28,0,0,0,1.67-.17V21a11.28,11.28,0,0,1-2.32.24c-2.6,0-4.1-.88-4.1-3.8Z"/><path id="Path_260" data-name="Path 260" d="M207.67,26.58a6.85,6.85,0,0,1-1.43-.12V24.18a4.82,4.82,0,0,0,1.26.14c1.14,0,1.75-.41,2.37-1.93l.73-1.81L204.93,5.83h2.78L212,17.54l4.24-11.71H219l-6.58,17C211.54,25.11,210.34,26.58,207.67,26.58Z"/><path id="Path_261" data-name="Path 261" d="M117.05,32.22h6.67c6.38,0,10.42,4.1,10.42,10.5s-4,10.51-10.42,10.51h-6.67Zm6.67,18.58c4.78,0,7.67-3.19,7.67-8.07s-2.9-8.08-7.7-8.08h-3.88V50.8Z"/><path id="Path_262" data-name="Path 262" d="M136.24,49.1c0-3,2.37-4.29,5.8-5l3.71-.76V42.7c0-1.76-1-2.75-3-2.75a3.3,3.3,0,0,0-3.54,2.6l-2.49-.64a6.08,6.08,0,0,1,6.12-4.28c3.42,0,5.53,1.67,5.53,4.95V50c0,1,.61,1.32,1.64,1.08v2.11c-2.34.29-3.69-.26-4-1.73a5.88,5.88,0,0,1-4.71,2C138.5,53.49,136.24,51.86,136.24,49.1Zm9.51-3.71-3,.64c-2.34.47-3.92,1.12-3.92,3,0,1.49,1.08,2.37,2.75,2.37,2.25,0,4.15-1.38,4.15-3.34Z"/><path id="Path_263" data-name="Path 263" d="M153.23,40.18h-2.37V37.93h2.37V33.45h2.6v4.48h3.49v2.25h-3.49v9c0,1.61.79,1.9,2.14,1.9a6.28,6.28,0,0,0,1.67-.17v2.25a11.25,11.25,0,0,1-2.31.24c-2.6,0-4.1-.88-4.1-3.8Z"/><path id="Path_264" data-name="Path 264" d="M161.58,49.1c0-3,2.37-4.29,5.79-5l3.72-.76V42.7c0-1.76-1-2.75-3-2.75a3.3,3.3,0,0,0-3.54,2.6l-2.48-.64a6.06,6.06,0,0,1,6.11-4.28c3.43,0,5.53,1.67,5.53,4.95V50c0,1,.62,1.32,1.64,1.08v2.11c-2.34.29-3.68-.26-4-1.73a5.87,5.87,0,0,1-4.71,2C163.83,53.49,161.58,51.86,161.58,49.1Zm9.51-3.71-3,.64c-2.34.47-3.92,1.12-3.92,3,0,1.49,1.08,2.37,2.75,2.37,2.26,0,4.16-1.38,4.16-3.34Z"/><path id="Path_265" data-name="Path 265" d="M184.45,47.14a7.13,7.13,0,0,0,6.41,4c2.72,0,4.82-1.35,4.82-3.75,0-2.55-2.42-3-5.61-3.75s-6.59-1.7-6.59-5.64c0-3.69,3.19-6.09,7.17-6.09A8.18,8.18,0,0,1,198.2,36l-2.13,1.7a5.85,5.85,0,0,0-5.48-3.4c-2.54,0-4.39,1.4-4.39,3.43,0,2.22,2,2.69,4.92,3.39,3.48.82,7.32,1.55,7.32,6,0,3.92-3.49,6.41-7.64,6.41-3.63,0-7.11-1.82-8.55-4.65Z"/><path id="Path_266" data-name="Path 266" d="M204.14,51V58.5H201.5V37.93h2.64v2.22a5.4,5.4,0,0,1,4.74-2.52c4.24,0,6.67,3.6,6.67,8s-2.43,8-6.67,8A5.36,5.36,0,0,1,204.14,51Zm-.06-4.86c0,3.51,2.16,5.09,4.33,5.09,2.87,0,4.48-2.37,4.48-5.65S211.28,40,208.41,40c-2.17,0-4.33,1.55-4.33,5.12Z"/><path id="Path_267" data-name="Path 267" d="M217.68,49.1c0-3,2.37-4.29,5.8-5l3.71-.76V42.7c0-1.76-1-2.75-3-2.75a3.3,3.3,0,0,0-3.54,2.6l-2.49-.64a6.08,6.08,0,0,1,6.12-4.28c3.42,0,5.53,1.67,5.53,4.95V50c0,1,.61,1.32,1.63,1.08v2.11c-2.34.29-3.68-.26-4-1.73a5.88,5.88,0,0,1-4.71,2C219.93,53.49,217.68,51.86,217.68,49.1Zm9.51-3.71-3,.64c-2.34.47-3.92,1.12-3.92,3,0,1.49,1.08,2.37,2.75,2.37,2.25,0,4.15-1.38,4.15-3.34Z"/><path id="Path_268" data-name="Path 268" d="M240.44,51.24a3.78,3.78,0,0,0,3.8-3.25l2.34,1.09a6.14,6.14,0,0,1-6.15,4.47c-4.27,0-7.22-3.24-7.22-8s2.95-8,7.22-8A6,6,0,0,1,246.52,42l-2.28,1.14a3.8,3.8,0,0,0-3.8-3.24c-2.72,0-4.6,2.16-4.6,5.67S237.72,51.24,240.44,51.24Z"/><path id="Path_269" data-name="Path 269" d="M248.42,45.59c0-4.56,2.9-8,7.05-8S262,40.88,262,45.12V46H250.94c.15,3.22,2,5.27,4.65,5.27a3.85,3.85,0,0,0,4-2.93l2.31.82a6.34,6.34,0,0,1-6.29,4.39C251.35,53.55,248.42,50.31,248.42,45.59ZM251.08,44h8.26c-.06-2.16-1.23-4.1-3.89-4.1-2.23,0-3.9,1.5-4.36,4.1Z"/></g></svg>