<?xml version="1.0" encoding="utf-8"?>
<!-- Generator: Adobe Illustrator 26.0.3, SVG Export Plug-In . SVG Version: 6.00 Build 0)  -->
<svg version="1.1" id="Ebene_1" xmlns="http://www.w3.org/2000/svg" xmlns:xlink="http://www.w3.org/1999/xlink" x="0px" y="0px"
	 viewBox="0 0 400 110" style="enable-background:new 0 0 400 110;" xml:space="preserve">
<style type="text/css">
	.st0{display:none;}
	.st1{display:inline;}
	.st2{fill:#003066;}
	.st3{fill:#737687;}
	.st4{fill:#5DA9FF;}
</style>
<g class="st0">
	<g class="st1">
		<g>
			<path class="st2" d="M197.1,25.3c-17.1,0-29.8,12.3-29.8,29.7c0,17.3,12.7,29.8,29.8,29.8s29.7-12.5,29.7-29.8
				C226.8,37.6,214.2,25.3,197.1,25.3z M197.1,77.8c-12.5,0-21.8-9.1-21.8-22.8s9.3-22.8,21.8-22.8s21.7,9.1,21.7,22.8
				S209.6,77.8,197.1,77.8z"/>
			<path class="st2" d="M277.1,25.8L255,75.6l-21.9-49.8h-8.2l25.9,58.5h8.1l26-58.5C284.9,25.8,277.1,25.8,277.1,25.8z"/>
			<path class="st2" d="M290.8,38v46.3h7.9V38H290.8z"/>
			<path class="st2" d="M341,84.8h-8.5c-11,0-17.1-6.2-17.1-17V38h7.9v29.4c0,6.9,2.7,10.7,9.2,10.7h5.4L341,84.8z"/>
			<polygon class="st2" points="366.6,68.6 364.6,73.2 362.7,77.6 356.4,63.7 344.9,38 353.1,38 364.4,63.7 364.9,64.7 			"/>
			<g>
				<polygon class="st2" points="350.6,32.4 304.2,32.4 304.2,25.7 347.6,25.7 				"/>
			</g>
			<g>
				<path class="st3" d="M116.1,91.2v1.4h3.9v10.1h1.6V92.6h4v-1.4H116.1z"/>
				<path class="st3" d="M131.8,93.9c-1.3,0-2.4,0.5-3.1,1.3v-4.7h-1.6v12.2h1.6v-4.5c0-1.9,1.1-2.9,2.8-2.9c1.5,0,2.4,0.8,2.4,2.5
					v4.8h1.6v-5C135.4,95.1,133.9,93.9,131.8,93.9z"/>
				<path class="st3" d="M146.3,98.4c0-2.7-1.8-4.5-4.3-4.5s-4.4,1.9-4.4,4.4c0,2.6,1.9,4.4,4.7,4.4c1.4,0,2.6-0.5,3.4-1.4l-0.9-1
					c-0.6,0.7-1.5,1-2.5,1c-1.7,0-3-1-3.2-2.6h7C146.2,98.7,146.3,98.5,146.3,98.4z M139.2,97.7c0.2-1.5,1.3-2.5,2.8-2.5
					s2.6,1,2.8,2.5H139.2z"/>
				<path class="st3" d="M153.1,91.2v11.5h1.6V91.2H153.1z"/>
				<path class="st3" d="M163.1,91.2h-4.8v11.5h4.8c3.7,0,6.2-2.3,6.2-5.8C169.3,93.5,166.7,91.2,163.1,91.2z M163,101.2h-3.1v-8.6
					h3.1c2.8,0,4.7,1.8,4.7,4.3C167.6,99.5,165.8,101.2,163,101.2z"/>
				<path class="st3" d="M172.6,94.3c0-1,0.8-1.8,2.8-1.8c1,0,2.2,0.3,3.2,0.9l0.5-1.3c-0.9-0.6-2.3-1-3.7-1c-3,0-4.4,1.5-4.4,3.3
					c0,4.3,7,2.5,7,5.3c0,1-0.8,1.8-2.8,1.8c-1.5,0-3-0.6-3.8-1.3l-0.6,1.3c0.9,0.9,2.6,1.4,4.4,1.4c3,0,4.4-1.5,4.4-3.3
					C179.6,95.3,172.6,97.1,172.6,94.3z"/>
				<path class="st3" d="M191.6,91c-3.5,0-6.1,2.5-6.1,5.9s2.6,5.9,6.1,5.9s6.1-2.5,6.1-5.9C197.7,93.5,195.1,91,191.6,91z
					 M191.6,101.3c-2.6,0-4.5-1.9-4.5-4.4c0-2.6,1.9-4.4,4.5-4.4c2.5,0,4.4,1.9,4.4,4.4C196.1,99.5,194.2,101.3,191.6,101.3z"/>
				<path class="st3" d="M204.6,93.9c-1.3,0-2.4,0.5-3.1,1.5V94H200v11.9h1.6v-4.5c0.7,1,1.8,1.4,3,1.4c2.5,0,4.4-1.8,4.4-4.4
					C209,95.7,207.2,93.9,204.6,93.9z M204.5,101.4c-1.7,0-2.9-1.2-2.9-3.1c0-1.8,1.3-3.1,2.9-3.1s2.9,1.2,2.9,3.1
					C207.4,100.2,206.2,101.4,204.5,101.4z"/>
				<path class="st3" d="M219.1,98.4c0-2.7-1.8-4.5-4.3-4.5s-4.4,1.9-4.4,4.4c0,2.6,1.9,4.4,4.7,4.4c1.4,0,2.6-0.5,3.4-1.4l-0.9-1
					c-0.6,0.7-1.5,1-2.5,1c-1.7,0-3-1-3.2-2.6h7.1C219.1,98.7,219.1,98.5,219.1,98.4z M212,97.7c0.2-1.5,1.3-2.5,2.8-2.5
					s2.6,1,2.8,2.5H212z"/>
				<path class="st3" d="M222.8,95.4V94h-1.5v8.7h1.6v-4.4c0-1.9,1-2.9,2.7-2.9c0.1,0,0.2,0,0.4,0v-1.5
					C224.4,93.9,223.4,94.4,222.8,95.4z"/>
				<path class="st3" d="M231.1,93.9c-1.4,0-2.7,0.4-3.6,1.1l0.6,1.2c0.7-0.6,1.7-0.9,2.8-0.9c1.6,0,2.3,0.8,2.3,2.1v0.3h-2.5
					c-2.6,0-3.5,1.2-3.5,2.6c0,1.5,1.2,2.6,3.2,2.6c1.4,0,2.3-0.5,2.8-1.2v1.2h1.5v-5.3C234.8,95,233.5,93.9,231.1,93.9z M233.2,100
					c-0.4,1-1.3,1.5-2.5,1.5s-1.9-0.5-1.9-1.4c0-0.8,0.4-1.4,2-1.4h2.4V100z"/>
				<path class="st3" d="M242.1,101c-0.3,0.3-0.8,0.4-1.2,0.4c-0.9,0-1.4-0.5-1.4-1.5v-4.7h2.5V94h-2.5v-1.9H238V94h-1.5v1.3h1.5
					v4.8c0,1.8,1,2.7,2.8,2.7c0.7,0,1.4-0.2,1.9-0.6L242.1,101z"/>
				<path class="st3" d="M245.3,90.2c-0.6,0-1.1,0.5-1.1,1c0,0.6,0.5,1,1.1,1s1.1-0.4,1.1-1C246.4,90.7,245.9,90.2,245.3,90.2z
					 M244.5,94v8.7h1.6V94H244.5z"/>
				<path class="st3" d="M253.8,93.9c-1.4,0-2.5,0.5-3.1,1.4V94h-1.5v8.7h1.6v-4.5c0-1.9,1.1-2.9,2.8-2.9c1.5,0,2.4,0.8,2.4,2.5v4.8
					h1.6v-5C257.4,95.1,255.9,93.9,253.8,93.9z"/>
				<path class="st3" d="M267.2,94v1.3c-0.7-0.9-1.9-1.4-3.2-1.4c-2.5,0-4.4,1.7-4.4,4.2s1.9,4.2,4.4,4.2c1.2,0,2.4-0.4,3.1-1.3v0.7
					c0,2-0.9,2.9-3,2.9c-1.3,0-2.6-0.4-3.4-1.1l-0.8,1.2c1,0.8,2.6,1.3,4.2,1.3c3,0,4.5-1.4,4.5-4.5V94H267.2z M264.2,100.9
					c-1.8,0-3-1.2-3-2.8c0-1.7,1.2-2.8,3-2.8s3,1.1,3,2.8S265.9,100.9,264.2,100.9z"/>
				<path class="st3" d="M281.6,101.3c-2.6,0-4.5-1.9-4.5-4.4c0-2.6,1.9-4.4,4.5-4.4c1.3,0,2.4,0.4,3.2,1.4l1.1-1
					c-1.1-1.2-2.6-1.8-4.4-1.8c-3.5,0-6.1,2.5-6.1,5.9s2.6,5.9,6.1,5.9c1.8,0,3.3-0.6,4.4-1.8l-1.1-1
					C283.9,100.9,282.9,101.3,281.6,101.3z"/>
				<path class="st3" d="M291.4,93.9c-2.6,0-4.5,1.8-4.5,4.4s1.9,4.4,4.5,4.4s4.5-1.9,4.5-4.4C295.9,95.7,294,93.9,291.4,93.9z
					 M291.4,101.4c-1.7,0-2.9-1.2-2.9-3.1s1.3-3.1,2.9-3.1s2.9,1.2,2.9,3.1C294.3,100.2,293.1,101.4,291.4,101.4z"/>
				<path class="st3" d="M309,93.9c-1.5,0-2.7,0.6-3.4,1.6c-0.6-1.1-1.7-1.6-3-1.6s-2.4,0.5-3,1.4V94h-1.5v8.7h1.6v-4.5
					c0-1.9,1-2.9,2.6-2.9c1.4,0,2.3,0.8,2.3,2.5v4.8h1.6v-4.5c0-1.9,1-2.9,2.6-2.9c1.4,0,2.2,0.8,2.2,2.5v4.8h1.6v-5
					C312.6,95.1,311.1,93.9,309,93.9z"/>
				<path class="st3" d="M320.1,93.9c-1.3,0-2.4,0.5-3.1,1.5V94h-1.5v11.9h1.6v-4.5c0.7,1,1.8,1.4,3,1.4c2.6,0,4.4-1.8,4.4-4.4
					C324.5,95.7,322.7,93.9,320.1,93.9z M320,101.4c-1.6,0-2.9-1.2-2.9-3.1c0-1.8,1.3-3.1,2.9-3.1c1.7,0,3,1.2,3,3.1
					C322.9,100.2,321.7,101.4,320,101.4z"/>
				<path class="st3" d="M329.8,93.9c-1.4,0-2.7,0.4-3.6,1.1l0.7,1.2c0.7-0.6,1.7-0.9,2.8-0.9c1.6,0,2.3,0.8,2.3,2.1v0.3h-2.5
					c-2.6,0-3.5,1.2-3.5,2.6c0,1.5,1.2,2.6,3.2,2.6c1.4,0,2.3-0.5,2.8-1.2v1.2h1.5v-5.3C333.5,95,332.2,93.9,329.8,93.9z M331.9,100
					c-0.4,1-1.3,1.5-2.5,1.5s-1.9-0.5-1.9-1.4c0-0.8,0.4-1.4,2-1.4h2.4V100z"/>
				<path class="st3" d="M341.1,93.9c-1.4,0-2.5,0.5-3.2,1.4V94h-1.5v8.7h1.6v-4.5c0-1.9,1.1-2.9,2.8-2.9c1.5,0,2.3,0.8,2.3,2.5v4.8
					h1.6v-5C344.7,95.1,343.2,93.9,341.1,93.9z"/>
				<path class="st3" d="M353.6,94l-3,7l-3-7H346l3.8,8.7l-0.3,0.6c-0.4,1-0.9,1.4-1.6,1.4c-0.6,0-1.1-0.2-1.6-0.6l-0.7,1.2
					c0.6,0.5,1.4,0.8,2.2,0.8c1.3,0,2.3-0.6,3.1-2.4l4.2-9.6L353.6,94L353.6,94z"/>
			</g>
			<rect x="290.8" y="25.7" class="st2" width="7.9" height="6.7"/>
			<path class="st2" d="M126.1,41.7c0-5.6,4.7-9.7,15.2-9.7c6,0,12.1,1.4,17.2,5l3.4-6.3c-4.9-3.3-13.1-5.4-20.7-5.4
				c-14.9,0-23.1,7.1-23.1,16.7c0,23.1,37.9,11.1,37.9,26.3c0,5.8-4.6,9.6-15.7,9.6c-8.2,0-16.1-2.9-20.8-6.6l-3.6,6.2
				c4.8,4.1,14.1,7.2,23.8,7.2c15.2,0,24.1-6.6,24.1-16.7C164,45.6,126.1,57.5,126.1,41.7z"/>
		</g>
	</g>
	<g class="st1">
		<polygon class="st4" points="399.5,25.8 382.5,63.7 380.5,68.3 371,89.4 365.1,102.7 357.8,102.7 361.4,94.4 364.1,88.2 
			364.1,88.2 365.7,84.5 365.7,84.5 369.7,75.5 372.8,68.4 372.9,68.2 374.9,63.7 391.7,25.8 		"/>
	</g>
	<g class="st1">
		<path class="st2" d="M45.2,3.7v20.4c0,0.4-0.2,0.8-0.6,1L24.2,36.9c-0.4,0.2-0.8,0.2-1.2,0L5.4,26.7c-0.8-0.5-0.8-1.6,0-2.1
			l38.1-22C44.2,2.2,45.2,2.8,45.2,3.7z"/>
		<path class="st2" d="M91.2,26.7L73.3,37c-0.1,0.1-0.2,0.1-0.3,0.1c-0.1,0-0.2,0-0.3-0.1L52,25.1c-0.4-0.2-0.6-0.6-0.6-1V3.7
			c0-0.9,1-1.5,1.8-1l38.1,22C92,25.1,92,26.2,91.2,26.7z"/>
		<path class="st2" d="M91.2,85.4l-38.1,22c-0.8,0.5-1.8-0.1-1.8-1V85.9c0-0.4,0.2-0.8,0.6-1L72.6,73c0,0,0,0,0.1,0s0.2-0.1,0.3-0.1
			c0.1,0,0.2,0,0.3,0.1h0.1l17.9,10.3C92,83.8,92,84.9,91.2,85.4z"/>
		<path class="st2" d="M45.2,85.9v20.4c0,0.9-1,1.5-1.8,1l-38.1-22c-0.8-0.5-0.8-1.6,0-2.1l18-10.2c0.1-0.1,0.2-0.1,0.3-0.1
			c0.1,0,0.2,0,0.3,0.1l20.7,11.9C45,85.1,45.2,85.5,45.2,85.9z"/>
		<path class="st2" d="M20.6,43.2v23.6c0,0.4-0.2,0.8-0.6,1L2.3,78c-0.8,0.5-1.8-0.1-1.8-1V33c0-0.9,1-1.5,1.8-1L20,42.2
			C20.3,42.4,20.6,42.8,20.6,43.2z"/>
		<path class="st4" d="M96.1,33v44c0,0.9-1,1.5-1.8,1L76,67.5L56.2,56c-0.8-0.5-0.8-1.6,0-2.1L76,42.5L94.3,32
			C95.1,31.5,96.1,32.1,96.1,33z"/>
	</g>
</g>
<path class="st2" d="M197.5,24.5c-17.6,0-30.6,12.7-30.6,30.6c0,17.8,13,30.6,30.6,30.6S228,72.9,228,55.1
	C228.1,37.1,215.1,24.5,197.5,24.5z M197.5,78.5c-12.8,0-22.4-9.4-22.4-23.4c0-14.1,9.6-23.5,22.4-23.5c12.8,0,22.3,9.4,22.3,23.5
	C219.8,69.1,210.3,78.5,197.5,78.5z"/>
<path class="st2" d="M288.3,37.5v47.6h8.1V37.5H288.3z"/>
<path class="st2" d="M339.9,85.7h-8.7c-11.3,0-17.6-6.4-17.6-17.5V37.5h8.1v30.2c0,7.1,2.7,11,9.5,11h5.6L339.9,85.7z"/>
<polygon class="st2" points="366.2,69 364.1,73.7 362.2,78.3 355.7,63.9 343.9,37.5 352.3,37.5 364,63.9 364.5,65 "/>
<g>
	<polygon class="st2" points="349.7,31.8 302,31.8 302,24.9 346.7,24.9 	"/>
</g>
<rect x="288.3" y="24.9" class="st2" width="8.1" height="6.9"/>
<path class="st2" d="M124.5,41.3c0-5.7,4.8-9.9,15.7-9.9c6.2,0,12.5,1.5,17.7,5.1l3.5-6.5c-5-3.4-13.5-5.6-21.3-5.6
	c-15.3,0-23.8,7.3-23.8,17.2c0,23.8,39,11.4,39,27.1c0,5.9-4.7,9.8-16.1,9.8c-8.5,0-16.6-3-21.4-6.7l-3.7,6.4
	c4.9,4.2,14.5,7.4,24.5,7.4c15.7,0,24.8-6.7,24.8-17.2C163.5,45.3,124.5,57.6,124.5,41.3z"/>
<g>
	<g>
		<g>
			<g>
				<path class="st4" d="M98.2,32.9v44.2c0,1.2-1.3,1.9-2.3,1.3l-38.2-22c-1-0.6-1-2,0-2.6L96,31.6C97,31.1,98.2,31.8,98.2,32.9z"/>
			</g>
			<g>
				<path class="st2" d="M43.7,1.4L5.4,23.6c-1,0.6-1,2,0,2.6l17.3,10c0.5,0.3,1,0.3,1.5,0l21-11.8c0.5-0.3,0.8-0.8,0.8-1.3V2.8
					C46,1.6,44.7,0.9,43.7,1.4z M92.8,23.6L54.5,1.4c-1-0.6-2.2,0.2-2.2,1.3V23c0,0.5,0.3,1,0.8,1.3l20.6,12c0.5,0.3,1.1,0.3,1.5,0
					l17.7-10.2C93.8,25.6,93.8,24.2,92.8,23.6z M92.8,83.9L75.3,73.7c-0.5-0.3-1.1-0.3-1.5,0L53,85.7c-0.5,0.3-0.8,0.8-0.8,1.3v20.4
					c0,1.1,1.3,1.9,2.2,1.3l38.3-22.1C93.8,86,93.8,84.5,92.8,83.9z M45.2,85.7l-20.8-12c-0.5-0.3-1-0.3-1.5,0L5.4,83.9
					c-1,0.6-1,2,0,2.6l38.3,22.1c1,0.6,2.3-0.2,2.3-1.3V87C46,86.5,45.7,86,45.2,85.7z M19.8,41.8L2.3,31.6C1.3,31,0,31.7,0,32.9
					v44.2c0,1.2,1.3,1.9,2.3,1.3l17.6-10.3c0.5-0.3,0.8-0.8,0.8-1.3V43.1C20.6,42.5,20.3,42,19.8,41.8z"/>
			</g>
		</g>
	</g>
</g>
<polygon class="st4" points="400,24.9 382.6,63.9 380.5,68.6 370.8,90.4 363.2,107.3 355.7,107.3 360.9,95.5 363.6,89.2 363.7,89.2 
	365.3,85.4 365.3,85.3 369.4,76.1 372.6,68.8 372.7,68.6 374.7,63.9 392,24.9 "/>
<g>
	<path class="st2" d="M256.6,76.2l-2.2-5.1L234.1,25h-8.5l24.6,55.5l2.1,4.6h4.2l2.1-4.6L256.6,76.2z"/>
	<path class="st2" d="M274.7,25l-20.3,46.2l-2.2,5.1l-1.9,4.3l2.1,4.6h4.2l2.1-4.6L283.1,25H274.7z"/>
</g>
</svg>
